	<svg xmlns="http://www.w3.org/2000/svg" version="1.1" xlink="http://www.w3.org/1999/xlink"
							xmlns:svgjs="http://svgjs.com/svgjs" width="100%" height="100%"
							viewBox="22.233999252319336 5 55.531463623046875 89.99999237060547">
							<g fill="#ddcb03">
								<path
									d="M77.743 55.792s-6.32 4.875-9.916 12.796a65.51 65.51 0 0 0-1.318 3.116l-1.808-4.81-.004-.013c.096-5.598.374-10.115.501-11.955 4.261-.177 7.687-3.62 7.823-7.954.034-1.029.378-11.972.378-11.972l-5.447 4.851-2.713-5.111-3.046 4.93-5.137-5.184-.326 10.358a326.232 326.232 0 0 0-3.623-8.678c5.398-2.756 7.877-9.199 5.616-14.966L52.37 5l-4.503 9.599-6.571-5.262-1.221 8.317-9.82-3.983 6.352 16.2c2.299 5.864 8.667 8.905 14.584 7.07.928 2.127 2.991 6.95 5.386 13.152-.451 1.469-2.327 8.25-1.114 15.845.551 3.45 1.327 6.595 2.19 9.103a200.092 200.092 0 0 0-6.015-7.086 240.223 240.223 0 0 0-9.118-9.711c2.771-3.119 2.746-7.871-.149-11.003l-8.132-8.796-.482 7.283L28.227 44l1.301 5.639-7.294-.094 8.132 8.796c2.943 3.184 7.788 3.538 11.122.88a239.03 239.03 0 0 1 9.088 9.678c2.124 2.392 3.996 4.6 5.647 6.632-2.122-1.42-4.788-2.904-7.767-4.269-7.907-3.625-15.876-3.165-15.876-3.165s4.852 6.338 12.759 9.963c7.299 3.346 15.568 3.54 15.568 3.54a99.97 99.97 0 0 1 2.988 4.33c.281 2.914.671 5.765 1.208 8.374l.145.696 1.393-.287-.143-.697a70.016 70.016 0 0 1-.856-5.269c.172.295.336.579.487.847l.348.62 1.24-.697-.348-.62a67.66 67.66 0 0 0-2.086-3.446c-.028-.297-.056-.587-.083-.896 0 0 .693-.631 1.737-1.744.752 3.348 1.233 6.082 1.537 8.253l.143 1.023 2.046-.287-.144-1.023c-.442-3.151-1.102-6.48-1.898-9.858 1.954-2.31 4.341-5.553 6.016-9.242 3.596-7.918 3.106-15.885 3.106-15.885zm-13.965-.926a231.451 231.451 0 0 0-.4 7.972 305.805 305.805 0 0 0-3.068-8.712l-.29-.779a8.085 8.085 0 0 0 3.758 1.519z">
								</path>
							</g>
						</svg>