<svg width="42" height="42" viewBox="0 0 42 42" fill="none" xmlns="http://www.w3.org/2000/svg">
<path d="M37.6527 4.55592C37.5669 4.55243 37.481 4.55185 37.3951 4.55427H34.1565V1.77111C34.1566 0.657847 33.0939 0 31.9806 0H28.9951C27.8819 0 27.0723 0.657847 27.0723 1.77111V4.55417H14.9277V1.77111C14.9277 0.657847 14.118 0 13.0048 0H10.0192C8.90603 0 7.84332 0.657847 7.84332 1.77111V4.55417H4.60484C2.53755 4.49654 0.81496 6.12576 0.75733 8.19296C0.754909 8.27878 0.75549 8.36478 0.758977 8.4506V37.6987C0.758977 39.9252 2.37822 41.9999 4.60475 41.9999H37.3952C39.6217 41.9999 41.241 39.9252 41.241 37.6987V8.4506C41.3256 6.38427 39.7191 4.64057 37.6527 4.55592ZM28.9951 2.0241H32.1325V7.59032H28.9951V2.0241ZM10.0193 2.0241H12.9037V7.59032H10.0193V2.0241ZM39.2169 37.6987C39.2169 38.812 38.5084 39.9758 37.3952 39.9758H4.60484C3.49158 39.9758 2.78317 38.812 2.78317 37.6987V16.1928H39.2169V37.6987ZM39.2169 8.4506V14.1687H2.78308V8.4506C2.69736 7.50431 3.39501 6.66767 4.3413 6.58195C4.42885 6.57401 4.51699 6.57285 4.60475 6.57837H7.84332V7.69163C7.84332 8.8049 8.90593 9.61452 10.0192 9.61452H13.0048C14.0384 9.6429 14.8993 8.82785 14.9277 7.7942C14.9286 7.76001 14.9286 7.72582 14.9277 7.69163V6.57827H27.0723V7.69154C27.0439 8.72519 27.8589 9.58604 28.8926 9.61442C28.9268 9.61539 28.961 9.61539 28.9951 9.61442H31.9807C33.094 9.61442 34.1566 8.8048 34.1566 7.69154V6.57827H37.3952C38.3435 6.51851 39.1607 7.23883 39.2204 8.18715C39.226 8.2749 39.2248 8.36304 39.2169 8.4506Z" fill="black"/>
<path d="M15.3831 30.0072L14.4723 35.0674C14.4363 35.2845 14.4719 35.5074 14.5739 35.7024C14.833 36.1976 15.4446 36.3891 15.9398 36.13L20.4939 33.7517L25.0481 36.13L25.5035 36.2312C25.7231 36.2351 25.9375 36.1636 26.1107 36.0288C26.4132 35.8079 26.5689 35.4381 26.5156 35.0673L25.6048 30.0071L29.2987 26.465C29.5631 26.1793 29.659 25.7764 29.5517 25.4024C29.4155 25.0566 29.1084 24.8072 28.7421 24.7445L23.6819 23.9855L21.4048 19.3806C21.3055 19.1757 21.1401 19.0101 20.9351 18.911C20.4321 18.6674 19.8268 18.8777 19.5831 19.3806L17.306 23.9855L12.2458 24.7445C11.8795 24.8071 11.5724 25.0566 11.4362 25.4024C11.3289 25.7764 11.4249 26.1793 11.6891 26.465L15.3831 30.0072ZM18.1663 25.9084C18.4841 25.8609 18.7533 25.6493 18.8747 25.3518L20.4939 22.1132L22.1132 25.3518C22.2346 25.6493 22.5038 25.8609 22.8216 25.9084L26.4144 26.4144L23.8336 28.8939C23.5932 29.1319 23.4805 29.4701 23.53 29.8048L24.1372 33.3975L20.9493 31.6771L20.4939 31.5759L20.0384 31.6771L16.8505 33.3975L17.4577 29.8048C17.5073 29.4701 17.3945 29.1319 17.1541 28.8939L14.5733 26.4144L18.1663 25.9084Z" fill="black"/>
</svg>
