<svg width="42" height="42" viewBox="0 0 42 42" fill="none" xmlns="http://www.w3.org/2000/svg">
<g clip-path="url(#clip0)">
<path d="M21 0C9.40203 0 0 9.40203 0 21C0 32.598 9.40203 42 21 42C32.598 42 42 32.598 42 21C41.9851 9.40822 32.5918 0.0148649 21 0ZM21.9009 40.1532V36.4595C21.9009 35.9619 21.4975 35.5586 21 35.5586C20.5025 35.5586 20.0991 35.9619 20.0991 36.4595V40.1532C10.2206 39.6815 2.31847 31.7794 1.84685 21.9009H5.54054C6.03806 21.9009 6.44144 21.4975 6.44144 21C6.44144 20.5025 6.03806 20.0991 5.54054 20.0991H1.84685C2.31847 10.2206 10.2206 2.31847 20.0991 1.84685V5.54054C20.0991 6.03806 20.5025 6.44144 21 6.44144C21.4975 6.44144 21.9009 6.03806 21.9009 5.54054V1.84685C31.7794 2.31847 39.6815 10.2206 40.1532 20.0991H36.4595C35.9619 20.0991 35.5586 20.5025 35.5586 21C35.5586 21.4975 35.9619 21.9009 36.4595 21.9009H36.4685H40.1622C39.6902 31.7827 31.7829 39.686 21.9009 40.1532Z" fill="#303036" stroke="#303036" stroke-width="0.5"/>
<path d="M30.5045 29.3784L21.9009 20.6306V11.5405C21.9009 11.043 21.4975 10.6396 21 10.6396C20.5025 10.6396 20.0991 11.043 20.0991 11.5405V21C20.1001 21.2364 20.1939 21.4628 20.3604 21.6306L29.2162 30.6397C29.5646 30.9954 30.1353 31.0015 30.491 30.6532C30.8468 30.3049 30.8528 29.7341 30.5045 29.3784Z" fill="#303036" stroke="#303036" stroke-width="0.5"/>
</g>
<defs>
<clipPath id="clip0">
<rect width="42" height="42" fill="white"/>
</clipPath>
</defs>
</svg>
