<svg width="100%" height="100%" xmlns="http://www.w3.org/2000/svg" version="1.1"
					xlink="http://www.w3.org/1999/xlink" xmlns:svgjs="http://svgjs.com/svgjs"
					preserveAspectRatio="xMidYMid meet" viewBox="0 0 277.51153564453125 146.99998474121094"
					overflow="visible">
					<defs id="SvgjsDefs1057"></defs>
					<g id="SvgjsG1058" transform="scale(0.5860608418863664)" opacity="1">
						<g id="SvgjsG1059" class="-qiV59aD2" transform="translate(151.5264, 0) scale(0.6370224069952308)"
							light-content="false" non-strokable="false" fill="#ddcb03">
							<circle cx="133.8" cy="133.8" r="133.8"></circle>
						</g>
						<g id="SvgjsG1060" class="iKxRdZShwi"
							transform="translate(186.84481835313275, 35.03210851771092) scale(0.9983094976400514)"
							light-content="true" non-strokable="false" fill="#ffffff">
							<path
								d="M50.299 6.573C40.379 16.97 34.043 32.63 33.966 50.181 33.89 67.732 40.088 83.518 49.918 94c-2.85-15.867-.277-33.22 8.136-47.2 2.137-3.551 4.54-6.7 7.144-9.43C62.982 25.116 57.655 14.402 50.3 6.573z"
								color="#000"></path>
							<path
								d="M6.181 24.14c-2.92 15.853-.477 33.146 7.875 47.163 8.351 14.017 20.351 21.873 33.206 22.693-9.876-10.44-15.602-26.198-15.602-43.75 0-4.49.406-8.828 1.181-13.018-7.634-8.035-17.058-12.488-26.66-13.089zm87.775.413C60.111 30.71 47.4 65.07 52.304 93.998 86.35 87.84 98.923 53.663 93.956 24.553z"
								color="#000"></path>
						</g>
						<g id="SvgjsG1061" class="text" transform="translate(235.1699981689453, 240.68720122070312) scale(1)"
							light-content="false" fill="#ddcb03">
							<path
								d="M-206.94 -18.09C-208.52 -19.63 -210.73 -20.6 -213.57 -21C-211.05 -21.92 -209.03 -23.13 -207.51 -24.63C-205.99 -26.13 -205.03 -27.8 -204.63 -29.64C-204.51 -30.2 -204.45 -30.72 -204.45 -31.2C-204.45 -33.28 -205.36 -34.88 -207.18 -36C-209 -37.12 -211.59 -37.68 -214.95 -37.68C-215.51 -37.68 -216.15 -37.66 -216.87 -37.62C-217.59 -37.58 -218.13 -37.54 -218.49 -37.5C-219.57 -37.38 -220.65 -37.32 -221.73 -37.32C-222.69 -37.32 -223.97 -37.36 -225.57 -37.44L-228.45 -37.5C-228.49 -37.46 -228.53 -37.4 -228.57 -37.32C-228.61 -37.24 -228.63 -37.14 -228.63 -37.02C-228.63 -36.86 -228.57 -36.78 -228.45 -36.78C-227.21 -36.78 -226.35 -36.64 -225.87 -36.36C-225.39 -36.08 -225.15 -35.48 -225.15 -34.56C-225.15 -34.12 -225.21 -33.54 -225.33 -32.82L-230.25 -5.04C-230.57 -3.32 -231.06 -2.17 -231.72 -1.59C-232.38 -1.01 -233.49 -0.72 -235.05 -0.72C-235.13 -0.72 -235.17 -0.6 -235.17 -0.36C-235.17 -0.12 -235.13 0 -235.05 0C-233.85 0 -232.89 -0.02 -232.17 -0.06L-228.09 -0.12C-227.25 -0.12 -226.48 -0.1 -225.78 -0.06C-225.08 -0.02 -224.47 0.02 -223.95 0.06C-222.63 0.18 -221.43 0.24 -220.35 0.24C-217.83 0.24 -215.45 -0.23 -213.21 -1.17C-210.97 -2.11 -209.1 -3.4 -207.6 -5.04C-206.1 -6.68 -205.15 -8.5 -204.75 -10.5C-204.63 -11.18 -204.57 -11.82 -204.57 -12.42C-204.57 -14.66 -205.36 -16.55 -206.94 -18.09ZM-218.28 -35.52C-217.74 -36.16 -216.93 -36.48 -215.85 -36.48C-214.01 -36.48 -212.61 -36.09 -211.65 -35.31C-210.69 -34.53 -210.21 -33.36 -210.21 -31.8C-210.21 -31.12 -210.29 -30.44 -210.45 -29.76C-210.97 -27.24 -212.02 -25.16 -213.6 -23.52C-215.18 -21.88 -217.09 -21.06 -219.33 -21.06L-221.43 -21.12L-219.45 -32.28C-219.21 -33.8 -218.82 -34.88 -218.28 -35.52ZM-210.81 -12.66C-210.81 -11.78 -210.93 -10.82 -211.17 -9.78C-211.77 -6.94 -212.89 -4.78 -214.53 -3.3C-216.17 -1.82 -218.43 -1.08 -221.31 -1.08C-222.55 -1.08 -223.4 -1.23 -223.86 -1.53C-224.32 -1.83 -224.55 -2.34 -224.55 -3.06C-224.55 -3.5 -224.49 -4.02 -224.37 -4.62L-221.79 -19.32C-220.95 -19.4 -219.97 -19.44 -218.85 -19.44C-216.13 -19.44 -214.11 -18.85 -212.79 -17.67C-211.47 -16.49 -210.81 -14.82 -210.81 -12.66Z M-168.09 -4.62L-162.39 -37.5C-162.35 -37.62 -162.44 -37.75 -162.66 -37.89C-162.88 -38.03 -163.09 -38.1 -163.29 -38.1L-163.71 -38.1C-163.91 -38.1 -164.05 -38.08 -164.13 -38.04L-191.01 -7.86L-186.63 -32.4C-186.43 -33.64 -186.17 -34.56 -185.85 -35.16C-185.53 -35.76 -185.04 -36.18 -184.38 -36.42C-183.72 -36.66 -182.71 -36.78 -181.35 -36.78C-181.27 -36.78 -181.23 -36.9 -181.23 -37.14C-181.23 -37.38 -181.27 -37.5 -181.35 -37.5L-183.93 -37.44C-185.77 -37.36 -187.43 -37.32 -188.91 -37.32C-189.87 -37.32 -191.23 -37.36 -192.99 -37.44L-196.05 -37.5C-196.17 -37.5 -196.23 -37.34 -196.23 -37.02C-196.23 -36.86 -196.19 -36.78 -196.11 -36.78C-194.67 -36.78 -193.69 -36.65 -193.17 -36.39C-192.65 -36.13 -192.39 -35.6 -192.39 -34.8C-192.39 -34.24 -192.47 -33.58 -192.63 -32.82L-198.45 0.24C-198.49 0.36 -198.39 0.49 -198.15 0.63C-197.91 0.77 -197.69 0.84 -197.49 0.84L-197.04 0.84C-196.86 0.84 -196.73 0.82 -196.65 0.78L-169.83 -29.34L-174.09 -5.04C-174.29 -3.84 -174.55 -2.94 -174.87 -2.34C-175.19 -1.74 -175.69 -1.32 -176.37 -1.08C-177.05 -0.84 -178.05 -0.72 -179.37 -0.72C-179.45 -0.72 -179.5 -0.6 -179.52 -0.36C-179.54 -0.12 -179.51 0 -179.43 0C-178.31 0 -177.41 -0.02 -176.73 -0.06L-171.81 -0.12L-167.79 -0.06C-167.03 -0.02 -165.99 0 -164.67 0C-164.59 0 -164.55 -0.12 -164.55 -0.36C-164.55 -0.6 -164.59 -0.72 -164.67 -0.72C-166.11 -0.72 -167.08 -0.84 -167.58 -1.08C-168.08 -1.32 -168.33 -1.84 -168.33 -2.64C-168.33 -3.2 -168.25 -3.86 -168.09 -4.62Z M-123.87 -1.2C-123.87 -1.48 -124.07 -1.62 -124.47 -1.62L-127.77 -1.62L-136.29 -37.62C-136.33 -37.74 -136.43 -37.83 -136.59 -37.89C-136.75 -37.95 -136.91 -37.98 -137.07 -37.98C-137.19 -37.98 -137.25 -37.96 -137.25 -37.92L-157.11 -1.62L-161.43 -1.62L-161.79 -1.62C-161.91 -1.62 -161.99 -1.6 -162.03 -1.56C-162.07 -1.52 -162.09 -1.42 -162.09 -1.26C-162.21 -0.54 -162.31 0.3 -162.39 1.26C-162.55 3.58 -162.95 6.46 -163.59 9.9C-163.63 10.06 -163.54 10.14 -163.32 10.14C-163.1 10.14 -162.97 10.08 -162.93 9.96C-162.29 6.52 -161.01 4 -159.09 2.4C-157.17 0.8 -154.51 0 -151.11 0L-136.59 0C-133.27 0 -130.81 0.59 -129.21 1.77C-127.61 2.95 -126.81 4.76 -126.81 7.2C-126.81 8.16 -126.89 9.06 -127.05 9.9C-127.09 10.06 -127.01 10.14 -126.81 10.14C-126.61 10.14 -126.49 10.08 -126.45 9.96C-125.73 6.08 -125.03 3.08 -124.35 0.96C-124.15 0.32 -124.03 -0.18 -123.99 -0.54C-123.91 -0.94 -123.87 -1.16 -123.87 -1.2ZM-155.25 -1.62L-140.73 -28.32L-134.43 -1.62Z M-89.85 -36.96C-89.77 -37.32 -89.89 -37.5 -90.21 -37.5L-113.79 -37.5C-113.87 -37.5 -113.91 -37.38 -113.91 -37.14C-113.91 -36.9 -113.87 -36.78 -113.79 -36.78C-112.59 -36.78 -111.76 -36.64 -111.3 -36.36C-110.84 -36.08 -110.61 -35.52 -110.61 -34.68C-110.61 -34.08 -110.69 -33.4 -110.85 -32.64L-115.71 -4.86C-115.95 -3.62 -116.2 -2.72 -116.46 -2.16C-116.72 -1.6 -117.12 -1.22 -117.66 -1.02C-118.2 -0.82 -119.03 -0.72 -120.15 -0.72C-120.27 -0.72 -120.33 -0.6 -120.33 -0.36C-120.33 -0.12 -120.27 0 -120.15 0L-95.25 0C-94.93 0 -94.71 -0.06 -94.59 -0.18C-94.47 -0.3 -94.37 -0.54 -94.29 -0.9C-93.57 -4.5 -92.89 -7.34 -92.25 -9.42C-92.17 -9.5 -92.25 -9.57 -92.49 -9.63C-92.73 -9.69 -92.87 -9.66 -92.91 -9.54C-94.39 -7.02 -96.25 -5.01 -98.49 -3.51C-100.73 -2.01 -103.01 -1.26 -105.33 -1.26L-106.89 -1.26C-108.05 -1.26 -108.85 -1.4 -109.29 -1.68C-109.73 -1.96 -109.95 -2.5 -109.95 -3.3C-109.95 -3.78 -109.89 -4.38 -109.77 -5.1L-107.37 -18.66L-100.71 -18.66C-99.19 -18.66 -98.01 -18.31 -97.17 -17.61C-96.33 -16.91 -95.91 -15.9 -95.91 -14.58C-95.91 -14.34 -95.95 -13.94 -96.03 -13.38C-96.07 -13.22 -95.97 -13.13 -95.73 -13.11C-95.49 -13.09 -95.35 -13.16 -95.31 -13.32C-95.19 -14 -95.09 -14.62 -95.01 -15.18C-94.93 -15.74 -94.85 -16.24 -94.77 -16.68C-94.61 -17.84 -94.47 -18.78 -94.35 -19.5C-94.15 -20.42 -94.05 -20.96 -94.05 -21.12C-93.73 -22.48 -93.49 -23.72 -93.33 -24.84C-93.29 -25.04 -93.39 -25.15 -93.63 -25.17C-93.87 -25.19 -94.01 -25.1 -94.05 -24.9C-94.41 -23.26 -95.08 -22.09 -96.06 -21.39C-97.04 -20.69 -98.45 -20.34 -100.29 -20.34L-107.07 -20.34L-104.91 -32.58C-104.71 -33.7 -104.5 -34.5 -104.28 -34.98C-104.06 -35.46 -103.69 -35.79 -103.17 -35.97C-102.65 -36.15 -101.81 -36.24 -100.65 -36.24L-99.57 -36.24C-97.37 -36.24 -95.57 -35.58 -94.17 -34.26C-92.77 -32.94 -91.99 -31.18 -91.83 -28.98C-91.83 -28.94 -91.78 -28.89 -91.68 -28.83C-91.58 -28.77 -91.47 -28.74 -91.35 -28.74C-91.19 -28.74 -91.11 -28.8 -91.11 -28.92Z M-79.98 -1.23C-77.92 0.07 -75.47 0.72 -72.63 0.72C-69.43 0.72 -66.32 -0.07 -63.3 -1.65C-60.28 -3.23 -57.69 -5.5 -55.53 -8.46C-53.37 -11.42 -51.95 -14.86 -51.27 -18.78C-50.99 -20.18 -50.85 -21.64 -50.85 -23.16C-50.85 -26.08 -51.41 -28.67 -52.53 -30.93C-53.65 -33.19 -55.26 -34.96 -57.36 -36.24C-59.46 -37.52 -61.95 -38.16 -64.83 -38.16C-68.19 -38.16 -71.37 -37.32 -74.37 -35.64C-77.37 -33.96 -79.88 -31.65 -81.9 -28.71C-83.92 -25.77 -85.25 -22.46 -85.89 -18.78C-86.17 -17.02 -86.31 -15.54 -86.31 -14.34C-86.31 -11.46 -85.77 -8.88 -84.69 -6.6C-83.61 -4.32 -82.04 -2.53 -79.98 -1.23ZM-62.52 -4.83C-64.7 -2.17 -67.21 -0.84 -70.05 -0.84C-73.09 -0.84 -75.44 -2.3 -77.1 -5.22C-78.76 -8.14 -79.59 -11.8 -79.59 -16.2C-79.59 -17.92 -79.43 -19.84 -79.11 -21.96C-78.35 -26.48 -76.89 -30.07 -74.73 -32.73C-72.57 -35.39 -70.05 -36.72 -67.17 -36.72C-64.17 -36.72 -61.83 -35.28 -60.15 -32.4C-58.47 -29.52 -57.63 -25.86 -57.63 -21.42C-57.63 -19.3 -57.79 -17.36 -58.11 -15.6C-58.87 -11.08 -60.34 -7.49 -62.52 -4.83Z M-47.22 -16.74C-47.08 -16.1 -46.95 -15.8 -46.83 -15.84L-29.13 -18.66C-29.05 -18.66 -29.01 -18.86 -29.01 -19.26C-29.01 -19.74 -29.07 -20.29 -29.19 -20.91C-29.31 -21.53 -29.43 -21.82 -29.55 -21.78L-47.31 -18.96C-47.39 -18.96 -47.43 -18.8 -47.43 -18.48C-47.43 -17.96 -47.36 -17.38 -47.22 -16.74Z M9.21 -0.36C9.21 -0.6 9.13 -0.72 8.97 -0.72C7.57 -0.72 6.62 -0.85 6.12 -1.11C5.62 -1.37 5.37 -1.9 5.37 -2.7C5.37 -2.94 5.45 -3.58 5.61 -4.62L10.41 -31.74C10.69 -33.58 11.18 -34.88 11.88 -35.64C12.58 -36.4 13.79 -36.78 15.51 -36.78C15.63 -36.78 15.69 -36.9 15.69 -37.14C15.69 -37.38 15.63 -37.5 15.51 -37.5L13.77 -37.5C7.53 -37.38 1.99 -37.32 -2.85 -37.32C-8.09 -37.32 -13.11 -37.36 -17.91 -37.44C-19.03 -37.48 -20.19 -37.5 -21.39 -37.5C-21.51 -37.5 -21.57 -37.38 -21.57 -37.14C-21.57 -36.9 -21.51 -36.78 -21.39 -36.78C-20.07 -36.78 -19.15 -36.59 -18.63 -36.21C-18.11 -35.83 -17.85 -35.18 -17.85 -34.26C-17.85 -33.98 -17.93 -33.28 -18.09 -32.16L-22.89 -5.04C-23.09 -3.84 -23.35 -2.94 -23.67 -2.34C-23.99 -1.74 -24.48 -1.32 -25.14 -1.08C-25.8 -0.84 -26.75 -0.72 -27.99 -0.72C-28.15 -0.72 -28.23 -0.6 -28.23 -0.36C-28.23 -0.12 -28.15 0 -27.99 0C-26.79 0 -25.83 -0.02 -25.11 -0.06L-20.91 -0.12L-16.47 -0.06C-15.71 -0.02 -14.71 0 -13.47 0C-13.31 0 -13.23 -0.12 -13.23 -0.36C-13.23 -0.6 -13.31 -0.72 -13.47 -0.72C-14.87 -0.72 -15.83 -0.85 -16.35 -1.11C-16.87 -1.37 -17.13 -1.9 -17.13 -2.7C-17.13 -3.3 -17.05 -3.94 -16.89 -4.62L-12.15 -31.74C-11.91 -33.06 -11.7 -33.96 -11.52 -34.44C-11.34 -34.92 -11.04 -35.24 -10.62 -35.4C-10.2 -35.56 -9.47 -35.64 -8.43 -35.64L2.37 -35.64C3.45 -35.64 4.13 -35.6 4.41 -35.52C4.69 -35.44 4.83 -35.16 4.83 -34.68C4.83 -34.48 4.69 -33.64 4.41 -32.16L-0.33 -5.04C-0.65 -3.32 -1.13 -2.17 -1.77 -1.59C-2.41 -1.01 -3.59 -0.72 -5.31 -0.72C-5.47 -0.72 -5.55 -0.6 -5.55 -0.36C-5.55 -0.12 -5.47 0 -5.31 0C-4.07 0 -3.09 -0.02 -2.37 -0.06L2.25 -0.12L6.15 -0.06C6.83 -0.02 7.77 0 8.97 0C9.13 0 9.21 -0.12 9.21 -0.36Z M23.22 -1.23C25.28 0.07 27.73 0.72 30.57 0.72C33.77 0.72 36.88 -0.07 39.9 -1.65C42.92 -3.23 45.51 -5.5 47.67 -8.46C49.83 -11.42 51.25 -14.86 51.93 -18.78C52.21 -20.18 52.35 -21.64 52.35 -23.16C52.35 -26.08 51.79 -28.67 50.67 -30.93C49.55 -33.19 47.94 -34.96 45.84 -36.24C43.74 -37.52 41.25 -38.16 38.37 -38.16C35.01 -38.16 31.83 -37.32 28.83 -35.64C25.83 -33.96 23.32 -31.65 21.3 -28.71C19.28 -25.77 17.95 -22.46 17.31 -18.78C17.03 -17.02 16.89 -15.54 16.89 -14.34C16.89 -11.46 17.43 -8.88 18.51 -6.6C19.59 -4.32 21.16 -2.53 23.22 -1.23ZM40.68 -4.83C38.5 -2.17 35.99 -0.84 33.15 -0.84C30.11 -0.84 27.76 -2.3 26.1 -5.22C24.44 -8.14 23.61 -11.8 23.61 -16.2C23.61 -17.92 23.77 -19.84 24.09 -21.96C24.85 -26.48 26.31 -30.07 28.47 -32.73C30.63 -35.39 33.15 -36.72 36.03 -36.72C39.03 -36.72 41.37 -35.28 43.05 -32.4C44.73 -29.52 45.57 -25.86 45.57 -21.42C45.57 -19.3 45.41 -17.36 45.09 -15.6C44.33 -11.08 42.86 -7.49 40.68 -4.83Z M89.37 -1.2C89.37 -1.48 89.17 -1.62 88.77 -1.62L85.47 -1.62L76.95 -37.62C76.91 -37.74 76.81 -37.83 76.65 -37.89C76.49 -37.95 76.33 -37.98 76.17 -37.98C76.05 -37.98 75.99 -37.96 75.99 -37.92L56.13 -1.62L51.81 -1.62L51.45 -1.62C51.33 -1.62 51.25 -1.6 51.21 -1.56C51.17 -1.52 51.15 -1.42 51.15 -1.26C51.03 -0.54 50.93 0.3 50.85 1.26C50.69 3.58 50.29 6.46 49.65 9.9C49.61 10.06 49.7 10.14 49.92 10.14C50.14 10.14 50.27 10.08 50.31 9.96C50.95 6.52 52.23 4 54.15 2.4C56.07 0.8 58.73 0 62.13 0L76.65 0C79.97 0 82.43 0.59 84.03 1.77C85.63 2.95 86.43 4.76 86.43 7.2C86.43 8.16 86.35 9.06 86.19 9.9C86.15 10.06 86.23 10.14 86.43 10.14C86.63 10.14 86.75 10.08 86.79 9.96C87.51 6.08 88.21 3.08 88.89 0.96C89.09 0.32 89.21 -0.18 89.25 -0.54C89.33 -0.94 89.37 -1.16 89.37 -1.2ZM57.99 -1.62L72.51 -28.32L78.81 -1.62Z M126.51 -0.36C126.51 -0.6 126.43 -0.72 126.27 -0.72C125.27 -0.72 124.53 -0.85 124.05 -1.11C123.57 -1.37 123.24 -1.76 123.06 -2.28C122.88 -2.8 122.67 -3.72 122.43 -5.04L115.89 -37.98C115.85 -38.06 115.77 -38.12 115.65 -38.16C115.53 -38.2 115.41 -38.22 115.29 -38.22C115.05 -38.22 114.89 -38.16 114.81 -38.04L98.07 -8.16C96.75 -5.76 95.33 -3.92 93.81 -2.64C92.29 -1.36 90.97 -0.72 89.85 -0.72C89.69 -0.72 89.61 -0.6 89.61 -0.36C89.61 -0.12 89.69 0 89.85 0C90.45 0 91.31 -0.04 92.43 -0.12C93.55 -0.2 94.53 -0.24 95.37 -0.24C96.37 -0.24 97.79 -0.2 99.63 -0.12C101.15 -0.04 102.17 0 102.69 0C102.85 0 102.94 -0.12 102.96 -0.36C102.98 -0.6 102.91 -0.72 102.75 -0.72C101.19 -0.72 100.03 -0.93 99.27 -1.35C98.51 -1.77 98.13 -2.44 98.13 -3.36C98.13 -4.4 98.65 -5.86 99.69 -7.74L105.15 -17.7L113.79 -17.7L116.37 -5.04C116.53 -4.4 116.61 -3.76 116.61 -3.12C116.61 -2.24 116.35 -1.62 115.83 -1.26C115.31 -0.9 114.45 -0.72 113.25 -0.72C113.09 -0.72 113.01 -0.6 113.01 -0.36C113.01 -0.12 113.09 0 113.25 0C113.89 0 114.85 -0.04 116.13 -0.12C117.57 -0.2 118.73 -0.24 119.61 -0.24C120.53 -0.24 121.75 -0.2 123.27 -0.12C124.63 -0.04 125.63 0 126.27 0C126.43 0 126.51 -0.12 126.51 -0.36ZM106.11 -19.38L111.51 -29.22L113.49 -19.38Z M128.97 -0.36C128.97 -0.12 129.01 0 129.09 0C130.25 0 131.15 -0.02 131.79 -0.06L135.63 -0.12L139.65 -0.06C140.33 -0.02 141.25 0 142.41 0C142.53 0 142.59 -0.12 142.59 -0.36C142.59 -0.6 142.53 -0.72 142.41 -0.72C141.21 -0.72 140.38 -0.86 139.92 -1.14C139.46 -1.42 139.23 -2 139.23 -2.88C139.23 -3.16 139.31 -3.82 139.47 -4.86L144.33 -32.52C144.65 -34.12 145.05 -35.17 145.53 -35.67C146.01 -36.17 146.89 -36.42 148.17 -36.42C149.85 -36.42 151.26 -35.72 152.4 -34.32C153.54 -32.92 154.11 -31 154.11 -28.56C154.11 -28.04 154.03 -27.18 153.87 -25.98C153.43 -22.98 152.41 -20.73 150.81 -19.23C149.21 -17.73 147.37 -16.98 145.29 -16.98C144.61 -16.98 144.03 -17.06 143.55 -17.22C143.43 -17.26 143.33 -17.15 143.25 -16.89C143.17 -16.63 143.13 -16.4 143.13 -16.2C143.13 -16.08 143.15 -16.02 143.19 -16.02C143.83 -15.82 144.65 -15.72 145.65 -15.72C147.61 -15.72 149.64 -16.13 151.74 -16.95C153.84 -17.77 155.7 -19.05 157.32 -20.79C158.94 -22.53 159.99 -24.66 160.47 -27.18C160.59 -27.98 160.65 -28.7 160.65 -29.34C160.65 -32.06 159.62 -34.13 157.56 -35.55C155.5 -36.97 152.75 -37.68 149.31 -37.68C149.19 -37.68 147.75 -37.62 144.99 -37.5C143.87 -37.38 142.91 -37.32 142.11 -37.32C141.11 -37.32 139.81 -37.36 138.21 -37.44L135.57 -37.5C135.45 -37.5 135.39 -37.38 135.39 -37.14C135.39 -36.9 135.45 -36.78 135.57 -36.78C136.77 -36.78 137.6 -36.64 138.06 -36.36C138.52 -36.08 138.75 -35.5 138.75 -34.62C138.75 -34.34 138.67 -33.68 138.51 -32.64L133.59 -4.86C133.39 -3.66 133.15 -2.77 132.87 -2.19C132.59 -1.61 132.17 -1.22 131.61 -1.02C131.05 -0.82 130.21 -0.72 129.09 -0.72C129.01 -0.72 128.97 -0.6 128.97 -0.36Z M169.62 -1.23C171.68 0.07 174.13 0.72 176.97 0.72C180.17 0.72 183.28 -0.07 186.3 -1.65C189.32 -3.23 191.91 -5.5 194.07 -8.46C196.23 -11.42 197.65 -14.86 198.33 -18.78C198.61 -20.18 198.75 -21.64 198.75 -23.16C198.75 -26.08 198.19 -28.67 197.07 -30.93C195.95 -33.19 194.34 -34.96 192.24 -36.24C190.14 -37.52 187.65 -38.16 184.77 -38.16C181.41 -38.16 178.23 -37.32 175.23 -35.64C172.23 -33.96 169.72 -31.65 167.7 -28.71C165.68 -25.77 164.35 -22.46 163.71 -18.78C163.43 -17.02 163.29 -15.54 163.29 -14.34C163.29 -11.46 163.83 -8.88 164.91 -6.6C165.99 -4.32 167.56 -2.53 169.62 -1.23ZM187.08 -4.83C184.9 -2.17 182.39 -0.84 179.55 -0.84C176.51 -0.84 174.16 -2.3 172.5 -5.22C170.84 -8.14 170.01 -11.8 170.01 -16.2C170.01 -17.92 170.17 -19.84 170.49 -21.96C171.25 -26.48 172.71 -30.07 174.87 -32.73C177.03 -35.39 179.55 -36.72 182.43 -36.72C185.43 -36.72 187.77 -35.28 189.45 -32.4C191.13 -29.52 191.97 -25.86 191.97 -21.42C191.97 -19.3 191.81 -17.36 191.49 -15.6C190.73 -11.08 189.26 -7.49 187.08 -4.83Z M238.35 -37.14C238.35 -37.38 238.29 -37.5 238.17 -37.5L235.95 -37.44C234.35 -37.36 232.83 -37.32 231.39 -37.32C230.27 -37.32 228.91 -37.36 227.31 -37.44L224.73 -37.5C224.61 -37.5 224.55 -37.38 224.55 -37.14C224.55 -36.9 224.61 -36.78 224.73 -36.78C225.97 -36.78 226.59 -36.2 226.59 -35.04C226.59 -33.52 225.51 -31.44 223.35 -28.8L216.15 -19.98L215.97 -19.98C214.57 -19.98 213.39 -19.96 212.43 -19.92L214.65 -32.28C214.93 -34.04 215.4 -35.23 216.06 -35.85C216.72 -36.47 217.93 -36.78 219.69 -36.78C219.85 -36.78 219.93 -36.9 219.93 -37.14C219.93 -37.38 219.85 -37.5 219.69 -37.5L216.69 -37.44C214.85 -37.36 213.31 -37.32 212.07 -37.32C211.07 -37.32 209.77 -37.36 208.17 -37.44L205.35 -37.5C205.23 -37.5 205.17 -37.38 205.17 -37.14C205.17 -36.9 205.23 -36.78 205.35 -36.78C206.75 -36.78 207.7 -36.65 208.2 -36.39C208.7 -36.13 208.95 -35.56 208.95 -34.68C208.95 -34.24 208.89 -33.62 208.77 -32.82L203.85 -5.04C203.61 -3.84 203.33 -2.94 203.01 -2.34C202.69 -1.74 202.21 -1.32 201.57 -1.08C200.93 -0.84 199.99 -0.72 198.75 -0.72C198.63 -0.72 198.57 -0.6 198.57 -0.36C198.57 -0.12 198.63 0 198.75 0C199.95 0 200.91 -0.02 201.63 -0.06L205.71 -0.12L210.03 -0.06C210.79 -0.02 211.85 0 213.21 0C213.37 0 213.45 -0.12 213.45 -0.36C213.45 -0.6 213.37 -0.72 213.21 -0.72C211.77 -0.72 210.8 -0.85 210.3 -1.11C209.8 -1.37 209.55 -1.92 209.55 -2.76C209.55 -3.24 209.61 -3.86 209.73 -4.62L212.25 -18.9L212.37 -18.9C213.45 -18.9 214.29 -18.73 214.89 -18.39C215.49 -18.05 216.02 -17.48 216.48 -16.68C216.94 -15.88 217.67 -14.44 218.67 -12.36L219.63 -10.38C221.15 -6.9 222.24 -4.47 222.9 -3.09C223.56 -1.71 224.06 -0.85 224.4 -0.51C224.74 -0.17 225.13 0 225.57 0L233.85 0C234.01 0 234.09 -0.12 234.09 -0.36C234.09 -0.6 234.01 -0.72 233.85 -0.72C232.85 -0.76 231.97 -1.11 231.21 -1.77C230.45 -2.43 229.75 -3.32 229.11 -4.44C228.47 -5.56 227.61 -7.24 226.53 -9.48L225.75 -11.04C224.59 -13.6 223.67 -15.43 222.99 -16.53C222.31 -17.63 221.57 -18.44 220.77 -18.96C219.97 -19.48 218.87 -19.8 217.47 -19.92L226.65 -29.88C228.33 -31.84 230.28 -33.48 232.5 -34.8C234.72 -36.12 236.61 -36.78 238.17 -36.78C238.29 -36.78 238.35 -36.9 238.35 -37.14Z">
							</path>
						</g>
					</g>
				</svg>