<svg width="44" height="44" viewBox="0 0 44 44" fill="none" xmlns="http://www.w3.org/2000/svg">
<path d="M32.8941 21.4217L17.4941 10.9217C17.2792 10.7761 17.002 10.76 16.7724 10.8811C16.5435 11.0022 16.4 11.2402 16.4 11.4999V32.4999C16.4 32.7596 16.5435 32.9976 16.7731 33.1187C16.8753 33.1733 16.988 33.1999 17.1 33.1999C17.2379 33.1999 17.3758 33.1586 17.4941 33.0781L32.8941 22.5781C33.0852 22.4479 33.2 22.2316 33.2 21.9999C33.2 21.7682 33.0852 21.5519 32.8941 21.4217ZM17.8 31.1748V12.825L31.2575 21.9999L17.8 31.1748Z" fill="#303036" stroke="#303036" stroke-width="0.8"/>
<path d="M22 1C10.4206 1 1 10.4206 1 22C1 33.5794 10.4206 43 22 43C33.5794 43 43 33.5794 43 22C43 10.4206 33.5794 1 22 1ZM22 41.6C11.1927 41.6 2.4 32.8073 2.4 22C2.4 11.1927 11.1927 2.4 22 2.4C32.8073 2.4 41.6 11.1927 41.6 22C41.6 32.8073 32.8073 41.6 22 41.6Z" fill="#303036" stroke="#303036" stroke-width="0.8"/>
</svg>
